<?xml version="1.0" encoding="UTF-8"?>
<svg xmlns="http://www.w3.org/2000/svg" version="1.1" width="100" height="100" viewBox="0 0 100 100"><rect x="0" y="0" width="100" height="100" fill="#ffffff"/><g transform="scale(2.703)"><g transform="translate(0,0)"><path fill-rule="evenodd" d="M9 0L9 1L8 1L8 2L9 2L9 3L8 3L8 4L10 4L10 7L11 7L11 4L12 4L12 5L13 5L13 4L15 4L15 6L14 6L14 8L13 8L13 6L12 6L12 9L13 9L13 10L11 10L11 11L9 11L9 10L10 10L10 9L11 9L11 8L6 8L6 9L9 9L9 10L6 10L6 11L5 11L5 12L2 12L2 11L3 11L3 10L2 10L2 9L5 9L5 8L0 8L0 10L1 10L1 11L0 11L0 16L1 16L1 17L0 17L0 18L1 18L1 19L2 19L2 18L3 18L3 17L7 17L7 16L8 16L8 17L9 17L9 18L10 18L10 19L8 19L8 18L6 18L6 19L7 19L7 20L6 20L6 21L5 21L5 22L6 22L6 23L7 23L7 24L5 24L5 23L4 23L4 20L5 20L5 18L4 18L4 20L3 20L3 22L0 22L0 24L1 24L1 25L0 25L0 29L1 29L1 25L2 25L2 26L3 26L3 28L2 28L2 29L3 29L3 28L5 28L5 29L8 29L8 31L11 31L11 30L10 30L10 28L9 28L9 26L10 26L10 25L11 25L11 23L10 23L10 22L11 22L11 21L12 21L12 22L13 22L13 21L14 21L14 22L15 22L15 23L14 23L14 24L13 24L13 23L12 23L12 25L13 25L13 26L11 26L11 29L12 29L12 30L13 30L13 31L12 31L12 33L13 33L13 34L11 34L11 35L9 35L9 34L10 34L10 33L11 33L11 32L8 32L8 37L13 37L13 36L12 36L12 35L14 35L14 33L15 33L15 37L18 37L18 36L19 36L19 35L18 35L18 34L21 34L21 35L20 35L20 37L21 37L21 36L22 36L22 37L23 37L23 36L22 36L22 34L24 34L24 33L29 33L29 35L26 35L26 34L25 34L25 35L24 35L24 37L27 37L27 36L31 36L31 37L37 37L37 33L36 33L36 31L37 31L37 30L34 30L34 29L35 29L35 28L33 28L33 27L32 27L32 28L30 28L30 26L29 26L29 25L28 25L28 26L25 26L25 25L27 25L27 24L28 24L28 23L29 23L29 22L30 22L30 25L31 25L31 26L32 26L32 25L34 25L34 27L36 27L36 28L37 28L37 26L36 26L36 25L37 25L37 22L36 22L36 21L37 21L37 18L36 18L36 17L37 17L37 14L36 14L36 13L37 13L37 12L36 12L36 11L37 11L37 10L36 10L36 8L35 8L35 9L34 9L34 8L33 8L33 10L32 10L32 12L31 12L31 11L30 11L30 13L28 13L28 12L27 12L27 11L29 11L29 10L30 10L30 8L29 8L29 9L28 9L28 7L29 7L29 3L27 3L27 2L28 2L28 1L26 1L26 0L25 0L25 1L26 1L26 3L25 3L25 2L24 2L24 3L23 3L23 0L20 0L20 3L22 3L22 4L20 4L20 7L19 7L19 5L17 5L17 4L18 4L18 3L19 3L19 1L17 1L17 2L18 2L18 3L17 3L17 4L16 4L16 3L13 3L13 4L12 4L12 2L13 2L13 1L15 1L15 2L16 2L16 1L15 1L15 0L13 0L13 1L11 1L11 2L10 2L10 0ZM10 3L10 4L11 4L11 3ZM24 4L24 5L21 5L21 7L22 7L22 8L24 8L24 6L25 6L25 8L26 8L26 6L27 6L27 7L28 7L28 6L27 6L27 5L28 5L28 4ZM8 5L8 7L9 7L9 5ZM25 5L25 6L26 6L26 5ZM15 6L15 8L18 8L18 9L17 9L17 11L15 11L15 10L16 10L16 9L15 9L15 10L13 10L13 11L12 11L12 13L10 13L10 12L9 12L9 14L10 14L10 15L8 15L8 13L6 13L6 12L8 12L8 11L6 11L6 12L5 12L5 13L1 13L1 16L4 16L4 15L6 15L6 16L7 16L7 15L8 15L8 16L9 16L9 17L10 17L10 15L11 15L11 18L13 18L13 17L12 17L12 15L13 15L13 16L15 16L15 17L14 17L14 19L12 19L12 21L13 21L13 20L15 20L15 18L16 18L16 17L17 17L17 18L19 18L19 19L16 19L16 21L17 21L17 22L16 22L16 24L17 24L17 25L19 25L19 24L20 24L20 25L22 25L22 26L23 26L23 27L24 27L24 28L29 28L29 26L28 26L28 27L25 27L25 26L23 26L23 25L22 25L22 24L20 24L20 23L21 23L21 22L22 22L22 23L24 23L24 24L26 24L26 23L27 23L27 22L28 22L28 21L30 21L30 22L31 22L31 21L30 21L30 18L31 18L31 17L30 17L30 14L31 14L31 15L32 15L32 16L33 16L33 15L34 15L34 16L35 16L35 17L36 17L36 15L34 15L34 13L30 13L30 14L29 14L29 15L28 15L28 16L27 16L27 14L28 14L28 13L27 13L27 14L26 14L26 13L24 13L24 12L23 12L23 11L25 11L25 12L26 12L26 10L28 10L28 9L22 9L22 10L18 10L18 9L21 9L21 8L18 8L18 6L17 6L17 7L16 7L16 6ZM22 6L22 7L23 7L23 6ZM31 8L31 9L32 9L32 8ZM22 10L22 11L20 11L20 12L19 12L19 14L17 14L17 13L18 13L18 12L17 12L17 13L16 13L16 12L15 12L15 11L14 11L14 13L12 13L12 14L13 14L13 15L14 15L14 13L15 13L15 15L16 15L16 16L17 16L17 15L19 15L19 14L20 14L20 17L19 17L19 18L20 18L20 17L21 17L21 19L20 19L20 21L19 21L19 22L21 22L21 20L22 20L22 21L25 21L25 22L26 22L26 21L28 21L28 20L29 20L29 19L28 19L28 18L30 18L30 17L28 17L28 18L27 18L27 16L25 16L25 17L26 17L26 19L28 19L28 20L25 20L25 18L24 18L24 20L23 20L23 16L24 16L24 15L26 15L26 14L24 14L24 13L23 13L23 12L22 12L22 11L23 11L23 10ZM35 10L35 11L34 11L34 12L35 12L35 13L36 13L36 12L35 12L35 11L36 11L36 10ZM20 12L20 13L22 13L22 14L21 14L21 15L24 15L24 14L23 14L23 13L22 13L22 12ZM5 13L5 14L6 14L6 15L7 15L7 14L6 14L6 13ZM3 14L3 15L4 15L4 14ZM32 17L32 18L33 18L33 19L31 19L31 20L36 20L36 19L34 19L34 17ZM10 19L10 21L11 21L11 19ZM8 20L8 21L9 21L9 20ZM6 21L6 22L7 22L7 21ZM32 21L32 22L34 22L34 23L33 23L33 24L36 24L36 23L35 23L35 22L34 22L34 21ZM17 22L17 23L18 23L18 24L19 24L19 23L18 23L18 22ZM2 23L2 24L4 24L4 27L5 27L5 26L8 26L8 25L5 25L5 24L4 24L4 23ZM8 23L8 24L9 24L9 23ZM31 24L31 25L32 25L32 24ZM14 26L14 27L12 27L12 29L14 29L14 30L15 30L15 29L17 29L17 30L16 30L16 31L13 31L13 32L15 32L15 33L16 33L16 32L17 32L17 33L19 33L19 32L20 32L20 33L21 33L21 34L22 34L22 32L23 32L23 33L24 33L24 32L26 32L26 31L27 31L27 32L28 32L28 29L26 29L26 30L25 30L25 29L24 29L24 30L23 30L23 29L22 29L22 28L20 28L20 29L21 29L21 30L19 30L19 27L20 27L20 26L18 26L18 27L15 27L15 26ZM6 27L6 28L8 28L8 27ZM14 28L14 29L15 29L15 28ZM29 29L29 32L32 32L32 29ZM18 30L18 31L19 31L19 30ZM22 30L22 31L21 31L21 32L22 32L22 31L23 31L23 30ZM24 30L24 31L25 31L25 30ZM30 30L30 31L31 31L31 30ZM33 30L33 32L35 32L35 31L34 31L34 30ZM31 33L31 34L30 34L30 35L31 35L31 36L36 36L36 35L35 35L35 33L34 33L34 34L32 34L32 33ZM31 34L31 35L32 35L32 34ZM17 35L17 36L18 36L18 35ZM25 35L25 36L26 36L26 35ZM0 0L0 7L7 7L7 0ZM1 1L1 6L6 6L6 1ZM2 2L2 5L5 5L5 2ZM30 0L30 7L37 7L37 0ZM31 1L31 6L36 6L36 1ZM32 2L32 5L35 5L35 2ZM0 30L0 37L7 37L7 30ZM1 31L1 36L6 36L6 31ZM2 32L2 35L5 35L5 32Z" fill="#000000"/></g></g></svg>
